<?xml version="1.0" encoding="utf-8"?>
<!-- Generator: Adobe Illustrator 24.3.0, SVG Export Plug-In . SVG Version: 6.00 Build 0)  -->
<svg version="1.1" id="Layer_1" xmlns="http://www.w3.org/2000/svg" xmlns:xlink="http://www.w3.org/1999/xlink" x="0px" y="0px"
	 viewBox="0 0 2194 2500" style="enable-background:new 0 0 2194 2500;" xml:space="preserve">
<style type="text/css">
	.st0{fill:#61DAFB;}
</style>
<g>
	<path class="st0" d="M2817,1250.4c0-227.9-285.4-443.8-722.9-577.8c101-446,56.1-800.8-141.6-914.3
		c-45.6-26.6-98.9-39.3-157.1-39.3v156.4c32.3,0,58.2,6.3,79.9,18.2c95.4,54.7,136.7,262.9,104.5,530.8
		c-7.7,65.9-20.3,135.3-35.8,206.1c-137.4-33.7-287.5-59.6-445.3-76.4c-94.7-129.7-192.8-247.5-291.7-350.6
		c228.6-212.5,443.1-328.9,589-328.9v-156.4c-192.8,0-445.3,137.4-700.5,375.8c-255.2-237-507.7-373-700.5-373v156.4
		c145.1,0,360.4,115.7,589,326.8c-98.2,103.1-196.3,220.2-289.6,349.9c-158.5,16.8-308.5,42.8-446,77.1
		c-16.1-70.1-28-138.1-36.5-203.3c-33-267.9,7.7-476.1,102.4-531.5c21-12.6,48.4-18.2,80.6-18.2v-156.4
		c-58.9,0-112.2,12.6-158.5,39.3C39.6-125.4-4.6,228.7,97.1,673.3C-339,807.9-623,1023.2-623,1250.4
		c0,227.9,285.4,443.8,722.9,577.8c-101,446-56.1,800.8,141.6,914.3c45.6,26.6,98.9,39.3,157.8,39.3
		c192.8,0,445.3-137.4,700.5-375.8c255.2,237,507.7,373,700.5,373c58.9,0,112.2-12.6,158.5-39.3c197-113.6,241.2-467.7,139.5-912.2
		C2533,1693.5,2817,1477.5,2817,1250.4L2817,1250.4z M1904.1,782.7c-25.9,90.5-58.2,183.7-94.7,277
		c-28.7-56.1-58.9-112.2-91.9-168.3c-32.3-56.1-66.6-110.8-101-164.1C1716.1,742,1812.2,760.2,1904.1,782.7L1904.1,782.7z
		 M1582.9,1529.4c-54.7,94.7-110.8,184.4-169,267.9c-104.5,9.1-210.4,14-316.9,14c-105.9,0-211.8-4.9-315.5-13.3
		c-58.2-83.4-115-172.5-169.7-266.4c-53.3-91.9-101.7-185.1-145.8-279.1c43.5-94,92.6-187.9,145.1-279.8
		c54.7-94.7,110.8-184.4,169-267.9c104.5-9.1,210.4-14,316.9-14c105.9,0,211.8,4.9,315.5,13.3c58.2,83.4,115,172.5,169.7,266.4
		c53.3,91.9,101.7,185.1,145.8,279.1C1683.9,1343.6,1635.5,1437.6,1582.9,1529.4L1582.9,1529.4z M1809.4,1438.3
		c37.9,94,70.1,187.9,96.8,279.1c-91.9,22.4-188.6,41.4-288.9,56.1c34.4-54,68.7-109.4,101-166.2
		C1750.5,1551.2,1780.7,1494.4,1809.4,1438.3L1809.4,1438.3z M1098.4,2186.4c-65.2-67.3-130.4-142.3-194.9-224.4
		c63.1,2.8,127.6,4.9,192.8,4.9c65.9,0,131.1-1.4,194.9-4.9C1228.1,2044.1,1162.9,2119.1,1098.4,2186.4z M576.7,1773.4
		c-99.6-14.7-195.6-33-287.5-55.4c25.9-90.5,58.2-183.7,94.7-277c28.7,56.1,58.9,112.2,91.9,168.3S542.4,1720.1,576.7,1773.4z
		 M1094.9,314.3c65.2,67.3,130.4,142.3,194.9,224.4c-63.1-2.8-127.6-4.9-192.8-4.9c-65.9,0-131.1,1.4-194.9,4.9
		C965.2,456.6,1030.4,381.6,1094.9,314.3z M576,727.3c-34.4,54-68.7,109.4-101,166.2c-32.3,56.1-62.4,112.2-91.2,168.3
		c-37.9-94-70.1-187.9-96.8-279.1C379,760.9,475.8,742,576,727.3L576,727.3z M-58.6,1605.1c-248.2-105.9-408.8-244.7-408.8-354.8
		c0-110.1,160.6-249.6,408.8-354.8c60.3-25.9,126.2-49.1,194.2-70.8c40,137.4,92.6,280.5,157.8,427
		c-64.5,145.8-116.4,288.2-155.7,424.9C68.4,1654.9,2.5,1631.1-58.6,1605.1L-58.6,1605.1z M318.7,2607.1
		c-95.4-54.7-136.7-262.9-104.5-530.8c7.7-65.9,20.3-135.3,35.8-206.1c137.4,33.7,287.5,59.6,445.3,76.4
		c94.7,129.7,192.8,247.5,291.7,350.6c-228.6,212.5-443.1,328.9-589,328.9C366.4,2625.4,339.7,2619.1,318.7,2607.1L318.7,2607.1z
		 M1981.9,2072.8c33,267.9-7.7,476.1-102.4,531.5c-21,12.6-48.4,18.2-80.6,18.2c-145.1,0-360.4-115.7-589-326.8
		c98.2-103.1,196.3-220.2,289.6-349.9c158.5-16.8,308.5-42.8,446-77.1C1961.6,1939.6,1974.2,2007.6,1981.9,2072.8z M2251.8,1605.1
		c-60.3,25.9-126.2,49.1-194.2,70.8c-40-137.4-92.6-280.5-157.8-427c64.5-145.8,116.4-288.2,155.7-424.9
		c69.4,21.7,135.3,45.6,197,71.5c248.2,105.9,408.8,244.7,408.8,354.8C2660.6,1360.4,2500.1,1500,2251.8,1605.1L2251.8,1605.1z"/>
	<circle class="st0" cx="1096.3" cy="1250.4" r="320.4"/>
</g>
</svg>
