<?xml version="1.0" encoding="utf-8"?>
<!-- Generator: Adobe Illustrator 24.3.0, SVG Export Plug-In . SVG Version: 6.00 Build 0)  -->
<svg version="1.1" id="Layer_1" xmlns="http://www.w3.org/2000/svg" xmlns:xlink="http://www.w3.org/1999/xlink" x="0px" y="0px"
	 viewBox="0 0 100 100" style="enable-background:new 0 0 100 100;" xml:space="preserve">
<style type="text/css">
	.st0{fill-rule:evenodd;clip-rule:evenodd;fill:#FFFFFF;filter:url(#Adobe_OpacityMaskFilter);}
	.st1{mask:url(#mask0_1_);}
	.st2{fill:#0065A9;}
	.st3{fill:#007ACC;}
	.st4{fill:#1F9CF0;}
	.st5{opacity:0.25;}
	.st6{fill-rule:evenodd;clip-rule:evenodd;fill:url(#SVGID_1_);}
</style>
<defs>
	<filter id="Adobe_OpacityMaskFilter" filterUnits="userSpaceOnUse" x="-296.2" y="-294.2" width="692.3" height="688.4">
		<feColorMatrix  type="matrix" values="1 0 0 0 0  0 1 0 0 0  0 0 1 0 0  0 0 0 1 0"/>
	</filter>
</defs>
<mask maskUnits="userSpaceOnUse" x="-296.2" y="-294.2" width="692.3" height="688.4" id="mask0_1_">
	<path class="st0" d="M194.9,391.2c10.9,4.2,23.3,4,34.3-1.3l142.5-68.5c15-7.2,24.5-22.4,24.5-39v-464.8c0-16.6-9.5-31.8-24.5-39
		l-142.5-68.5c-14.4-6.9-31.3-5.2-44,4c-1.8,1.3-3.5,2.8-5.2,4.4L-92.7-32.7l-118.8-90.2c-11.1-8.4-26.5-7.7-36.8,1.6l-38.1,34.7
		c-12.6,11.4-12.6,31.2,0,42.6l103,94l-103,94c-12.5,11.4-12.5,31.2,0,42.6l38.1,34.7c10.3,9.3,25.7,10,36.8,1.6l118.8-90.2
		L180,381.5C184.4,385.9,189.4,389.1,194.9,391.2z M223.3-107.1L16.3,50l206.9,157.1V-107.1z"/>
</mask>
<g class="st1">
	<path class="st2" d="M371.7-221.3l-142.6-68.6c-16.5-7.9-36.2-4.6-49.2,8.4L-286.8,144c-12.6,11.4-12.5,31.2,0,42.6l38.1,34.7
		c10.3,9.3,25.8,10,36.8,1.6l562-426.4c18.9-14.3,45.9-0.9,45.9,22.8v-1.7C396.1-198.9,386.6-214.1,371.7-221.3z"/>
	<g>
		<path class="st3" d="M371.7,321.3l-142.6,68.6c-16.5,7.9-36.2,4.6-49.2-8.4L-286.8-44c-12.6-11.4-12.5-31.2,0-42.6l38.1-34.7
			c10.3-9.3,25.8-10,36.8-1.6l562,426.4c18.9,14.3,45.9,0.9,45.9-22.8v1.7C396.1,298.9,386.6,314.1,371.7,321.3z"/>
	</g>
	<g>
		<path class="st4" d="M229.1,389.9c-16.5,7.9-36.2,4.6-49.2-8.4c16,16,43.2,4.7,43.2-17.9v-627.3c0-22.6-27.3-33.9-43.2-17.9
			c13-13,32.7-16.3,49.2-8.4l142.5,68.5c15,7.2,24.5,22.4,24.5,39v464.8c0,16.6-9.5,31.8-24.5,39L229.1,389.9z"/>
	</g>
	<g class="st5">
		
			<linearGradient id="SVGID_1_" gradientUnits="userSpaceOnUse" x1="49.7593" y1="395.3617" x2="49.7593" y2="-292.9994" gradientTransform="matrix(1 0 0 -1 0 101.1811)">
			<stop  offset="0" style="stop-color:#FFFFFF"/>
			<stop  offset="1" style="stop-color:#FFFFFF;stop-opacity:0"/>
		</linearGradient>
		<path class="st6" d="M194.5,391.2c10.9,4.2,23.3,4,34.3-1.3l142.5-68.5c15-7.2,24.5-22.4,24.5-39v-464.8c0-16.6-9.5-31.8-24.5-39
			l-142.5-68.5c-14.4-6.9-31.3-5.2-44,4c-1.8,1.3-3.5,2.8-5.2,4.4L-93.1-32.7l-118.8-90.2c-11.1-8.4-26.5-7.7-36.8,1.6l-38.1,34.7
			c-12.6,11.4-12.6,31.2,0,42.6l103,94l-103,94c-12.5,11.4-12.5,31.2,0,42.6l38.1,34.7c10.3,9.3,25.7,10,36.8,1.6l118.8-90.2
			l272.7,248.8C183.9,385.9,189,389.1,194.5,391.2z M222.8-107.1L15.9,50l206.9,157.1V-107.1z"/>
	</g>
</g>
</svg>
